HIERARCHY
ROOT Hips
{
	OFFSET 0.00000 0.00000 0.00000
	CHANNELS 6 Xposition Yposition Zposition Yrotation Zrotation Xrotation 
	JOINT Lumbar
	{
		OFFSET 0 0 0
		CHANNELS 3 Zrotation Xrotation Yrotation
		JOINT Neck
		{
			OFFSET 0.00 0.2701 0.00
			CHANNELS 3 Zrotation Xrotation Yrotation
			End Site
			{
				OFFSET 0.00 0.1379 0.00
			}
		}
		JOINT RightShoulder
		{
			OFFSET 0.0119 0.2289 0.1181
			CHANNELS 3 Zrotation Xrotation Yrotation
			JOINT RightElbow
			{
				OFFSET 0.00 -0.1475 0.00
				CHANNELS 2 Zrotation Yrotation
				JOINT RightWrist
				{
					OFFSET 0.00 -0.1605 0.00
					CHANNELS 2 Zrotation Xrotation
					End Site
					{
						OFFSET 0.0040 -0.1068 0.0006
					}
				}
			}
		}
		JOINT LeftShoulder
		{
			OFFSET 0.0119 0.2289 -0.1181
			CHANNELS 3 Zrotation Xrotation Yrotation
			JOINT LeftElbow
			{
				OFFSET 0.00 -0.1475 0.00
				CHANNELS 2 Zrotation Yrotation
				JOINT LeftWrist
				{
					OFFSET 0.00 -0.1605 0.00
					CHANNELS 2 Zrotation Xrotation
					End Site
					{
						OFFSET 0.0040 -0.1068 -0.0006
					}
				}
			}
		}
	}
	JOINT RightHip
	{
		OFFSET 0.0316 -0.0424 0.0458
		CHANNELS 3 Zrotation Xrotation Yrotation
		JOINT RightKnee
		{
			OFFSET 0.00 -0.2438 0.00
			CHANNELS 1 Zrotation
			JOINT RightAnkle
			{
				OFFSET 0.00 -0.2449 0.00
				CHANNELS 3 Zrotation Xrotation Yrotation
				End Site
				{
					OFFSET 0.1237 -0.0542 0.0051
				}
			}
		}
	}
	JOINT LeftHip
	{
		OFFSET 0.0316 -0.0424 -0.0458
		CHANNELS 3 Zrotation Xrotation Yrotation
		JOINT LeftKnee
		{
			OFFSET 0.00 -0.2438 0.00
			CHANNELS 1 Zrotation
			JOINT LeftAnkle
			{
				OFFSET 0.00 -0.2449 0.00
				CHANNELS 3 Zrotation Xrotation Yrotation
				End Site
				{
					OFFSET 0.1237 -0.0542 -0.0051
				}
			}
		}
	}
}
MOTION
Frames: 17
Frame Time: 0.02
0.00044 5e-05 0.00012 -538.26566 -42.13457 -3.06284 49.978 1.27025 -3.91868 -1.34321 0.09265 -0.83056 -20.67159 -5.41806 -13.14506 35.21256 135.70481 15.56466 10.41108 -34.99776 13.45679 -6.20891 44.54005 -68.13277 -1.19536 2.10528 47.06775 -2.5407 -9.75393 -19.49043 -6.53788 -2.57555 -3.4325 49.87567 5.9118 4.97679 -24.97652 -6.81462 2.89205 3.63922
0.00025 4e-05 0.00014 -538.20964 -42.122 -3.05084 49.98535 1.26859 -3.90365 -1.28631 0.07137 -0.83179 -20.59839 -5.65713 -12.22231 35.23453 131.05242 14.41903 9.4929 -34.35437 12.42717 -4.19656 44.6807 -74.15819 0.94068 1.25234 47.02901 -2.54793 -9.76755 -19.49087 -6.53103 -2.56429 -3.43164 49.84267 5.95528 5.20253 -24.97797 -6.80333 2.86593 3.6259
6e-05 4e-05 0.00017 -538.15375 -42.10949 -3.03888 49.99267 1.26692 -3.88885 -1.22941 0.05013 -0.83303 -20.5251 -5.89548 -11.3021 35.25644 126.41456 13.2771 8.57756 -33.71228 11.40242 -2.19455 44.82115 -80.15795 3.06798 0.40314 46.99041 -2.55515 -9.78122 -19.49132 -6.52418 -2.55306 -3.43078 49.80979 5.99865 5.42767 -24.97941 -6.79207 2.83988 3.61263
-0.00013 3e-05 0.0002 -538.0979 -42.09696 -3.02692 50.00001 1.26526 -3.8739 -1.17266 0.02892 -0.83427 -20.45207 -6.13381 -10.38215 35.27834 121.77653 12.13503 7.66221 -33.07078 10.3763 -0.18919 44.96141 -86.16343 5.19702 -0.44695 46.9518 -2.56237 -9.7948 -19.49176 -6.51735 -2.54183 -3.42991 49.7769 6.042 5.65272 -24.98086 -6.78081 2.81383 3.59935
-0.00032 3e-05 0.00022 -538.04194 -42.08439 -3.01492 50.00735 1.26362 -3.85866 -1.11596 0.00767 -0.8355 -20.37926 -6.37287 -9.45976 35.30031 117.12392 10.9892 6.74403 -32.42821 9.34453 1.82837 45.10176 -92.19783 7.33579 -1.30133 46.91306 -2.5696 -9.80832 -19.49219 -6.5105 -2.53056 -3.42905 49.74389 6.08545 5.87835 -24.9823 -6.76953 2.78772 3.58604
-0.00051 2e-05 0.00025 -537.9862 -42.072 -3.00302 50.0146 1.26187 -3.84477 -1.05865 -0.01354 -0.83675 -20.30495 -6.60974 -8.54416 35.32211 112.51732 9.8555 5.83468 -31.78716 8.33451 3.7978 45.24241 -98.12484 9.43896 -2.13965 46.87474 -2.57679 -9.82231 -19.49269 -6.50367 -2.51941 -3.42819 49.7113 6.12864 6.10247 -24.98375 -6.75832 2.7618 3.57284
-0.00071 1e-05 0.00028 -537.9301 -42.05925 -2.99095 50.02211 1.26034 -3.82819 -1.00266 -0.0348 -0.83796 -20.23373 -6.85068 -7.61602 35.34417 107.82348 8.69874 4.90862 -31.14386 7.28227 5.86085 45.38234 -104.2593 11.6108 -3.00901 46.83561 -2.58405 -9.83528 -19.49305 -6.49681 -2.50805 -3.42732 49.67787 6.17231 6.32934 -24.98519 -6.74697 2.73553 3.55944
-0.0009 1e-05 0.0003 -537.87427 -42.04683 -2.97902 50.02925 1.25861 -3.81409 -0.94537 -0.05601 -0.83924 -20.15967 -7.08798 -6.69923 35.36609 103.2096 7.5631 3.9979 -30.50244 6.26819 7.83953 45.52285 -110.20633 13.72052 -3.85035 46.79724 -2.59126 -9.84932 -19.49352 -6.48998 -2.49687 -3.42646 49.64525 6.21555 6.55373 -24.98663 -6.73576 2.70957 3.54621
-0.00108 0 0.00033 -537.819 -42.03483 -2.9673 50.03644 1.25663 -3.80302 -0.88678 -0.0772 -0.84047 -20.08203 -7.3205 -5.79672 35.38747 98.69348 6.45337 3.10583 -29.86369 5.30372 9.70739 45.6645 -115.91007 15.75001 -4.65521 46.75973 -2.59835 -9.86417 -19.4942 -6.48319 -2.48595 -3.42562 49.61348 6.25821 6.77496 -24.9881 -6.72469 2.68402 3.53322
-0.00129 -0 0.00036 -537.76118 -42.02046 -2.95449 50.04485 1.25608 -3.77451 -0.83655 -0.09864 -0.84155 -20.02466 -7.57955 -4.81326 35.41086 93.6148 5.19481 2.1061 -29.2107 4.06272 12.1897 45.80091 -122.97102 18.22823 -5.66326 46.71706 -2.60595 -9.87287 -19.49389 -6.47616 -2.47365 -3.4247 49.57641 6.30405 7.01399 -24.98951 -6.7127 2.6562 3.51894
-0.00145 -1e-05 0.00037 -537.70834 -42.01106 -2.94392 50.04973 1.2525 -3.78279 -0.76812 -0.11947 -0.84324 -19.92478 -7.78322 -3.99989 35.43068 89.72341 4.25018 1.33381 -28.58713 3.39937 13.39073 45.94749 -127.19607 19.76802 -6.24698 46.6854 -2.61258 -9.89547 -19.49553 -6.46967 -2.46418 -3.42392 49.55078 6.34327 7.2157 -24.99095 -6.70272 2.63311 3.50734
-0.00151 -3e-05 0.00034 -537.67226 -42.01587 -2.93998 50.05204 1.24072 -3.89291 -0.65332 -0.13914 -0.84427 -19.70505 -7.82913 -3.66272 35.4359 89.12428 4.1776 1.19033 -28.04981 4.3852 10.91513 46.12989 -123.33218 18.6378 -5.61825 46.68394 -2.61555 -9.94882 -19.50388 -6.46443 -2.46326 -3.42387 49.55541 6.36358 7.31212 -24.99329 -6.69787 2.62363 3.50345
-0.00151 -6e-05 0.0003 -537.64046 -42.02571 -2.93819 50.04907 1.22592 -4.03962 -0.51929 -0.1581 -0.84633 -19.44334 -7.82083 -3.4942 35.43889 89.71537 4.4194 1.27514 -27.54105 5.93961 7.18211 46.32125 -116.67575 16.58213 -4.57212 46.69389 -2.61767 -10.01725 -19.51394 -6.45985 -2.46508 -3.42392 49.57213 6.37739 7.37161 -24.99551 -6.69514 2.61875 3.50217
-0.00152 -7e-05 0.00026 -537.60482 -42.03271 -2.93513 50.04441 1.21237 -4.16924 -0.39205 -0.177 -0.84943 -19.20282 -7.84072 -3.24282 35.44547 89.73379 4.50901 1.25144 -27.01555 7.19153 4.13012 46.50304 -111.49989 15.01287 -3.74865 46.69817 -2.62086 -10.08394 -19.52235 -6.45508 -2.46509 -3.42368 49.58357 6.39469 7.44989 -24.99719 -6.69163 2.61139 3.49945
-0.00159 -0.00011 0.00023 -537.5777 -42.04146 -2.93336 50.05875 1.19911 -4.30165 -0.2741 -0.19743 -0.84618 -18.95286 -7.84422 -3.01961 35.43932 89.87061 4.63401 1.24513 -26.50576 8.62914 0.61529 46.70712 -105.43278 13.16681 -2.78605 46.70307 -2.62135 -10.13016 -19.53449 -6.44962 -2.46732 -3.42439 49.59257 6.40973 7.51961 -25.00129 -6.68719 2.6058 3.4978
-0.00152 -0.00011 0.00017 -537.53319 -42.04849 -2.92933 50.03009 1.18478 -4.43593 -0.13088 -0.21459 -0.85639 -18.71315 -7.87061 -2.77573 35.46149 90.06564 4.76555 1.26069 -25.97031 9.81676 -2.23652 46.86809 -100.55107 11.67415 -2.01318 46.71118 -2.62703 -10.22122 -19.53924 -6.446 -2.46577 -3.42326 49.61148 6.42789 7.59843 -25.00042 -6.6854 2.59749 3.49453
-0.0012 -6e-05 7e-05 -537.44527 -42.04387 -2.91936 49.9021 1.16616 -4.5746 0.06593 -0.22221 -0.90365 -18.50758 -7.96007 -2.44983 35.54213 89.91864 4.78495 1.24356 -25.35478 10.15555 -2.91899 46.89753 -99.71476 11.41998 -1.87748 46.71076 -2.64941 -10.44461 -19.52368 -6.44518 -2.45151 -3.41612 49.63861 6.45668 7.71088 -24.98524 -6.68859 2.58144 3.4864
